<?xml version="1.0" encoding="UTF-8" standalone="no"?>
<!-- Created with Inkscape (http://www.inkscape.org/) -->

<svg
   version="1.1"
   id="svg2"
   width="266.66666"
   height="281.33334"
   viewBox="0 0 266.66666 281.33334"
   sodipodi:docname="logocarp 2.svg"
   inkscape:version="1.2.2 (732a01da63, 2022-12-09)"
   xmlns:inkscape="http://www.inkscape.org/namespaces/inkscape"
   xmlns:sodipodi="http://sodipodi.sourceforge.net/DTD/sodipodi-0.dtd"
   xmlns="http://www.w3.org/2000/svg"
   xmlns:svg="http://www.w3.org/2000/svg">
  <defs
     id="defs6" />
  <sodipodi:namedview
     id="namedview4"
     pagecolor="#505050"
     bordercolor="#eeeeee"
     borderopacity="1"
     inkscape:showpageshadow="0"
     inkscape:pageopacity="0"
     inkscape:pagecheckerboard="0"
     inkscape:deskcolor="#505050"
     showgrid="false"
     inkscape:zoom="1.3195416"
     inkscape:cx="32.208155"
     inkscape:cy="113.67584"
     inkscape:window-width="1366"
     inkscape:window-height="705"
     inkscape:window-x="-8"
     inkscape:window-y="-8"
     inkscape:window-maximized="1"
     inkscape:current-layer="g8" />
  <g
     inkscape:groupmode="layer"
     inkscape:label="Image"
     id="g8">
    <a
       id="a1117"
       transform="translate(203.65868,56.266669)"
       style="fill:#cccccc">
      <g
         id="g918"
         style="fill:#cccccc">
        <path
           id="path915"
           style="fill:#cccccc"
           d="m -154.125,102.6875 -25.67188,0.0937 0.28321,7.57813 6.34765,-0.0938 5.02149,5.21094 0.37891,11.17774 6.53515,4.92578 0.94727,10.60937 0.47461,0.66407 8.80859,4.26171 0.56836,6.72657 0.37891,2.27343 9.75781,3.22071 1.70508,5.68359 2.08398,3.88281 3.69531,0.0957 1.23047,1.51562 3.88477,-0.3789 4.54687,8.14648 9.66211,-0.0937 7.19922,8.24023 h 0.66406 l 1.23047,-1.23046 8.146486,-0.18946 5.494141,4.92578 1.800781,0.75782 1.609375,-0.85352 2.84375,-2.17773 5.115235,0.18945 5.58789,3.69336 1.326172,0.47461 1.042969,-0.47461 0.947265,-0.85156 2.462891,-1.89453 3.789063,-1.61133 4.357421,1.32617 2.177735,1.32617 2.748047,0.94727 0.568359,-0.28321 1.232422,-1.70507 3.220703,-3.59961 8.714844,-0.28516 1.230469,1.61133 1.515624,0.47265 0.378907,-0.85156 0.189453,-1.99023 5.021484,-5.20899 0.56836,-0.66406 9.851562,0.18945 0.757813,-0.85156 v -1.42187 l 2.748047,-3.97852 1.136718,-1.98828 4.451172,-0.57031 5.2109376,-1.13672 2.4628906,-5.6836 0.8515626,-3.03125 9.0957031,-3.31445 0.5683593,-0.18945 0.8515626,-8.71485 9.0937502,-5.49414 0.853515,-9.47461 6.63086,-5.20898 0.09375,-11.46289 4.546875,-5.6836 h 7.390625 l 0.09375,-7.57812 -44.902344,0.0937 0.285156,2.08398 -1.894531,1.42188 0.283203,2.46289 -1.798828,1.04102 0.757813,2.9375 2.083984,2.17968 2.3671874,0.85157 1.7050781,-0.66211 6.34765625,-5.40039 1.32617187,0.18945 -6.63085942,14.87305 -0.9472656,2.08398 H -23.019531 l -9.947266,10.23047 -0.195312,0.39258 c 0.0073,0.1834 0.0012,0.36838 -0.002,0.55078 -0.01347,0.89991 -0.04686,1.79807 -0.08398,2.69726 -0.0074,0.17783 -0.01321,0.35521 -0.01953,0.53321 l 0.01758,0.0879 0.378906,3.50586 9.56836,0.0957 -11.652344,9.09375 -15.63086,-6.63086 -3.125,0.0937 -0.947265,0.66406 h -3.412109 l -0.851563,0.56836 v 0.47266 l -8.810547,0.18945 0.0957,7.57813 0.283203,0.75781 8.242188,3.31641 0.662109,0.85156 -0.09375,0.94726 -16.482422,0.66407 -9.378906,-14.01953 -0.757812,-0.94727 -14.966799,-5.02149 -0.75781,0.18946 -1.23242,1.42187 -1.60938,2.55664 -0.28515,1.04297 5.968746,8.9043 -0.0957,1.23047 -15.630856,-7.48242 -1.23047,-18.47266 -9.56836,-10.79883 -1.51563,-1.61133 -1.04101,0.18946 -3.50586,3.88476 0.28515,9.1875 -1.61132,0.0957 -8.6211,-12.31446 6.63281,-16.38867 0.0937,-2.27344 z m 0.13672,0.22656 4.31445,7.16211 -0.75781,5.87305 c 0.28418,-0.37892 2.17969,-6.63086 2.17969,-6.63086 l 5.87304,0.0937 -4.92578,11.08398 23.01953,35.05079 0.47266,0.47265 -1.60938,-24.25 5.30469,3.78906 1.13672,20.46094 37.039064,17.52539 -11.652344,-18.47265 -0.378906,-1.98829 v -0.66406 l 5.589844,0.47461 10.988281,17.52539 39.123047,-3.79101 -18.283204,-10.51368 -1.326171,-1.51562 7.390625,-0.66406 13.451172,7.29492 h 1.609374 l 1.990235,-0.28516 1.230469,-1.04101 29.5566402,-22.73633 0.8515626,-0.18945 -23.3027348,0.4746 4.453125,-4.64257 18.0917972,-1.32617 6.8222657,-15.34571 3.03125,-6.25195 7.1992191,0.0937 0.283203,3.98047 -8.1464846,17.42968 -9.9472656,14.20899 -9.9453128,9.94727 -5.589843,4.92578 -8.429688,5.77734 -14.210938,6.82227 c 0,0 -14.20993,4.92578 -15.0625,4.92578 -0.852543,0 -7.578125,0.56836 -7.578124,0.56836 l -24.15625,0.18945 -2.273438,-0.47461 -6.630859,-2.08398 -5.777341,-2.36719 -7.19922,-3.12696 c 0,0 -4.16893,-2.27441 -4.64258,-2.36914 -0.47365,-0.0947 -9,-5.11523 -9,-5.11523 l -8.99805,-7.19922 -5.02148,-4.64062 -4.16797,-4.92579 -7.19922,-10.51562 -8.9043,-15.63086 -2.27343,-3.88281 -0.28516,-5.4961 -0.0937,-2.55664 7.82227,0.18946 z m 1.05469,5.64649 0.0254,0.13672 c 0.0112,-0.005 0.0233,-0.009 0.0351,-0.01 h 0.002 l -0.0234,-0.12695 z m 0.97265,5.16211 c -0.002,7.8e-4 -0.004,2.5e-4 -0.006,0.002 l 0.0234,0.12891 c -0.006,-0.0436 -0.0116,-0.0873 -0.0176,-0.13086 z m 117.17969,24.06445 c -4.83e-4,0.0599 -0.0014,0.11978 -0.002,0.17969 0.0033,0.0503 0.0063,0.10012 0.0098,0.15039 -0.0027,-0.11003 -0.0051,-0.22005 -0.0078,-0.33008 z" />
        <path
           id="path920"
           style="fill:#cccccc"
           d="m -155.53711,103.02148 -1.54101,5.29102 14.66992,1.13867 -2.88086,-4.88867 z" />
      </g>
    </a>
    <a
       id="a1125"
       transform="rotate(180,28.712836,110.2203)"
       style="fill:#cccccc">
      <g
         id="g1123"
         style="fill:#cccccc">
        <path
           id="path1119"
           style="fill:#cccccc"
           d="m -154.125,102.6875 -25.67188,0.0937 0.28321,7.57813 6.34765,-0.0938 5.02149,5.21094 0.37891,11.17774 6.53515,4.92578 0.94727,10.60937 0.47461,0.66407 8.80859,4.26171 0.56836,6.72657 0.37891,2.27343 9.75781,3.22071 1.70508,5.68359 2.08398,3.88281 3.69531,0.0957 1.23047,1.51562 3.88477,-0.3789 4.54687,8.14648 9.66211,-0.0937 7.19922,8.24023 h 0.66406 l 1.23047,-1.23046 8.146486,-0.18946 5.494141,4.92578 1.800781,0.75782 1.609375,-0.85352 2.84375,-2.17773 5.115235,0.18945 5.58789,3.69336 1.326172,0.47461 1.042969,-0.47461 0.947265,-0.85156 2.462891,-1.89453 3.789063,-1.61133 4.357421,1.32617 2.177735,1.32617 2.748047,0.94727 0.568359,-0.28321 1.232422,-1.70507 3.220703,-3.59961 8.714844,-0.28516 1.230469,1.61133 1.515624,0.47265 0.378907,-0.85156 0.189453,-1.99023 5.021484,-5.20899 0.56836,-0.66406 9.851562,0.18945 0.757813,-0.85156 v -1.42187 l 2.748047,-3.97852 1.136718,-1.98828 4.451172,-0.57031 5.2109376,-1.13672 2.4628906,-5.6836 0.8515626,-3.03125 9.0957031,-3.31445 0.5683593,-0.18945 0.8515626,-8.71485 9.0937502,-5.49414 0.853515,-9.47461 6.63086,-5.20898 0.09375,-11.46289 4.546875,-5.6836 h 7.390625 l 0.09375,-7.57812 -44.902344,0.0937 0.285156,2.08398 -1.894531,1.42188 0.283203,2.46289 -1.798828,1.04102 0.757813,2.9375 2.083984,2.17968 2.3671874,0.85157 1.7050781,-0.66211 6.34765625,-5.40039 1.32617187,0.18945 -6.63085942,14.87305 -0.9472656,2.08398 H -23.019531 l -9.947266,10.23047 -0.195312,0.39258 c 0.0073,0.1834 0.0012,0.36838 -0.002,0.55078 -0.01347,0.89991 -0.04686,1.79807 -0.08398,2.69726 -0.0074,0.17783 -0.01321,0.35521 -0.01953,0.53321 l 0.01758,0.0879 0.378906,3.50586 9.56836,0.0957 -11.652344,9.09375 -15.63086,-6.63086 -3.125,0.0937 -0.947265,0.66406 h -3.412109 l -0.851563,0.56836 v 0.47266 l -8.810547,0.18945 0.0957,7.57813 0.283203,0.75781 8.242188,3.31641 0.662109,0.85156 -0.09375,0.94726 -16.482422,0.66407 -9.378906,-14.01953 -0.757812,-0.94727 -14.966799,-5.02149 -0.75781,0.18946 -1.23242,1.42187 -1.60938,2.55664 -0.28515,1.04297 5.968746,8.9043 -0.0957,1.23047 -15.630856,-7.48242 -1.23047,-18.47266 -9.56836,-10.79883 -1.51563,-1.61133 -1.04101,0.18946 -3.50586,3.88476 0.28515,9.1875 -1.61132,0.0957 -8.6211,-12.31446 6.63281,-16.38867 0.0937,-2.27344 z m 0.13672,0.22656 4.31445,7.16211 -0.75781,5.87305 c 0.28418,-0.37892 2.17969,-6.63086 2.17969,-6.63086 l 5.87304,0.0937 -4.92578,11.08398 23.01953,35.05079 0.47266,0.47265 -1.60938,-24.25 5.30469,3.78906 1.13672,20.46094 37.039064,17.52539 -11.652344,-18.47265 -0.378906,-1.98829 v -0.66406 l 5.589844,0.47461 10.988281,17.52539 39.123047,-3.79101 -18.283204,-10.51368 -1.326171,-1.51562 7.390625,-0.66406 13.451172,7.29492 h 1.609374 l 1.990235,-0.28516 1.230469,-1.04101 29.5566402,-22.73633 0.8515626,-0.18945 -23.3027348,0.4746 4.453125,-4.64257 18.0917972,-1.32617 6.8222657,-15.34571 3.03125,-6.25195 7.1992191,0.0937 0.283203,3.98047 -8.1464846,17.42968 -9.9472656,14.20899 -9.9453128,9.94727 -5.589843,4.92578 -8.429688,5.77734 -14.210938,6.82227 c 0,0 -14.20993,4.92578 -15.0625,4.92578 -0.852543,0 -7.578125,0.56836 -7.578124,0.56836 l -24.15625,0.18945 -2.273438,-0.47461 -6.630859,-2.08398 -5.777341,-2.36719 -7.19922,-3.12696 c 0,0 -4.16893,-2.27441 -4.64258,-2.36914 -0.47365,-0.0947 -9,-5.11523 -9,-5.11523 l -8.99805,-7.19922 -5.02148,-4.64062 -4.16797,-4.92579 -7.19922,-10.51562 -8.9043,-15.63086 -2.27343,-3.88281 -0.28516,-5.4961 -0.0937,-2.55664 7.82227,0.18946 z m 1.05469,5.64649 0.0254,0.13672 c 0.0112,-0.005 0.0233,-0.009 0.0351,-0.01 h 0.002 l -0.0234,-0.12695 z m 0.97265,5.16211 c -0.002,7.8e-4 -0.004,2.5e-4 -0.006,0.002 l 0.0234,0.12891 c -0.006,-0.0436 -0.0116,-0.0873 -0.0176,-0.13086 z m 117.17969,24.06445 c -4.83e-4,0.0599 -0.0014,0.11978 -0.002,0.17969 0.0033,0.0503 0.0063,0.10012 0.0098,0.15039 -0.0027,-0.11003 -0.0051,-0.22005 -0.0078,-0.33008 z" />
        <path
           id="path1121"
           style="fill:#cccccc"
           d="m -155.53711,103.02148 -1.54101,5.29102 14.66992,1.13867 -2.88086,-4.88867 z" />
      </g>
    </a>
    <rect
       style="fill:#dfb02f;fill-opacity:1"
       id="rect3562"
       width="3.550159"
       height="16.344128"
       x="142.07333"
       y="95.184448" />
    <rect
       style="fill:#dfb02f;fill-opacity:1"
       id="rect3564"
       width="1.0047619"
       height="14.334603"
       x="145.35556"
       y="96.457146" />
    <rect
       style="fill:#dfb02f;fill-opacity:1"
       id="rect3566"
       width="9.7796831"
       height="10.114604"
       x="148.83873"
       y="99.069527" />
    <rect
       style="fill:#dfb02f;fill-opacity:1"
       id="rect3568"
       width="3.2152383"
       height="1.8755556"
       x="155.47017"
       y="97.461906" />
    <rect
       style="fill:#dfb02f;fill-opacity:1"
       id="rect3570"
       width="2.2774603"
       height="13.664762"
       x="160.96286"
       y="96.39016" />
    <rect
       style="fill:#dfb02f;fill-opacity:1"
       id="rect3572"
       width="0.93777782"
       height="12.660001"
       x="162.83842"
       y="96.792068"
       ry="0.46888891" />
    <rect
       style="fill:#dfb02f;fill-opacity:1"
       id="rect3574"
       width="2.7463493"
       height="12.593017"
       x="165.18288"
       y="96.792068"
       ry="0" />
    <rect
       style="fill:#dfb02f;fill-opacity:1"
       id="rect3576"
       width="1.0717461"
       height="9.5787306"
       x="167.46033"
       y="98.600639" />
    <rect
       style="fill:#dfb02f;fill-opacity:1"
       id="rect3578"
       width="1.7415874"
       height="6.7653971"
       x="167.79523"
       y="100.0743" />
    <rect
       style="fill:#dfb02f;fill-opacity:0.95200002"
       id="rect3580"
       width="17.951746"
       height="3.2152383"
       x="107.37556"
       y="101.68191" />
    <rect
       style="fill:#dfb02f;fill-opacity:1"
       id="rect3582"
       width="2.7463493"
       height="9.9806356"
       x="99.672386"
       y="98.265717" />
    <rect
       style="fill:#dfb02f;fill-opacity:1"
       id="rect3584"
       width="1.8755556"
       height="6.4974604"
       x="101.88286"
       y="100.00731" />
    <rect
       style="fill:#dfb02f;fill-opacity:0.99199998"
       id="rect3586"
       width="1.3396826"
       height="3.7511113"
       x="103.49048"
       y="101.68191" />
    <rect
       style="fill:#dfb02f;fill-opacity:1"
       id="rect3588"
       width="30.142859"
       height="3.4161906"
       x="104.2273"
       y="96.122223" />
    <rect
       style="fill:#dfb02f;fill-opacity:1"
       id="rect3588-5"
       width="30.142859"
       height="3.4161906"
       x="104.12683"
       y="108.07889" />
    <rect
       style="fill:#dfb02f;fill-opacity:1"
       id="rect3614"
       width="6.8323812"
       height="10.650476"
       x="127.47079"
       y="99.203499" />
    <rect
       style="fill:#dfb02f;fill-opacity:1"
       id="rect3668"
       width="3.8180954"
       height="5.8276191"
       x="136.04477"
       y="100.4762" />
    <rect
       style="fill:#dfb02f;fill-opacity:1"
       id="rect3670"
       width="2.612381"
       height="6.0955558"
       x="133.90128"
       y="100.34222" />
    <text
       xml:space="preserve"
       style="font-size:32px;fill:#dfb02f;fill-opacity:1"
       x="26.793653"
       y="148.97272"
       id="text3726"><tspan
         sodipodi:role="line"
         id="tspan3724"
         x="26.793653"
         y="148.97272"
         style="font-style:normal;font-variant:normal;font-weight:normal;font-stretch:normal;font-size:32px;font-family:'Times New Roman';-inkscape-font-specification:'Times New Roman, '">CARPINTERÍA</tspan></text>
    <text
       xml:space="preserve"
       style="font-size:17.3333px;fill:#ffffff;fill-opacity:1"
       x="88.342224"
       y="172.95116"
       id="text3726-0"><tspan
         sodipodi:role="line"
         id="tspan3724-5"
         x="88.342224"
         y="172.95116"
         style="font-style:normal;font-variant:normal;font-weight:normal;font-stretch:normal;font-size:17.3333px;font-family:'Times New Roman';-inkscape-font-specification:'Times New Roman, ';fill:#ffffff">AGUILERA</tspan></text>
  </g>
</svg>
